<svg width="530" height="228" viewBox="0 0 530 228" fill="none" xmlns="http://www.w3.org/2000/svg">
<g clip-path="url(#clip0_0_1)">
<path d="M24.5 27.875L63.4375 5.0625C73.1875 8.77083 83.5625 14.5833 94.5625 22.5C89.8125 25.6667 84.9375 29.0208 79.9375 32.5625C93.0208 42.6875 99.5625 52.0208 99.5625 60.5625C99.5625 63.7708 98.6667 66.8542 96.875 69.8125C90.1667 80.7708 76.3958 90.9167 55.5625 100.25C43.5625 89.625 29.8333 83.8542 14.375 82.9375L30.25 71.375L30.625 40.6875C30.7083 35.6042 28.6667 31.3333 24.5 27.875ZM69.9375 29.9375C64.1042 25.6042 57.6667 22.4167 50.625 20.375L50.5 43.125L69.9375 29.9375ZM69.8125 86.5C76.4792 80.6667 79.8125 74.3333 79.8125 67.5C79.8125 63.0833 78.5625 59.0208 76.0625 55.3125C73.5625 51.6042 69.875 48.9792 65 47.4375C63.2083 46.8958 61.0833 46.625 58.625 46.625C56.2083 46.625 53.4792 47.4792 50.4375 49.1875L50.3125 65.9375L44 69.8125C56.1667 75.8958 64.7708 81.4583 69.8125 86.5ZM106.062 53.5625L130.438 33.75L158.062 46.6875C154.812 49.5208 153.167 52.7083 153.125 56.25L152.875 76.9375C152.875 78.3542 153.604 79.9583 155.062 81.75C156.562 83.5417 157.979 84.9792 159.312 86.0625L146.688 99.0625L137 89.125C134.667 91 132.312 92.7292 129.938 94.3125C127.562 95.8542 125.438 97.4792 123.562 99.1875C117.312 96.8542 111.479 93.25 106.062 88.375C107.604 86.4167 108.5 83.5625 108.75 79.8125L108.562 60.9375C108.562 60.7708 108.562 60.6042 108.562 60.4375C108.562 57.9792 107.729 55.6875 106.062 53.5625ZM127.5 48.75C125.083 52.375 123.875 55.6042 123.875 58.4375V73.75C123.875 76.875 124.438 79.1042 125.562 80.4375C126.521 81.8125 127.396 83.0417 128.188 84.125C129.021 85.2083 130.333 86 132.125 86.5L137.25 82.8125V54.0625L127.5 48.75ZM186.062 42.625L194.188 34.375C202.562 40.1667 208.229 46.0417 211.188 52L201.188 65.375C200.062 62.0833 198.521 59.1875 196.562 56.6875C194.646 54.1875 191.438 51.625 186.938 49L184.875 51.8125L183.688 73.125C183.562 75.2917 184.938 77.5417 187.812 79.875C190.688 82.2083 192.917 83.7083 194.5 84.375L184.125 99.0625L164.75 84C167.083 81.2083 168.292 78.3333 168.375 75.375L168.25 51.375C168.125 49.375 166.583 47.375 163.625 45.375L173.062 33.5L186.062 42.625ZM214.062 20.125L214.75 17.1875C223.042 14.2708 231.979 10.2292 241.562 5.0625L245.5 7.5C239.583 11.0417 236.604 17.7292 236.562 27.5625L236.5 40.4375L246.875 32.1875C250.042 33.5208 252.958 36.1042 255.625 39.9375C261.083 47.7708 264.271 56.0833 265.188 64.875C265.312 65.9167 265.375 67.2708 265.375 68.9375C265.375 70.6042 264.917 72.0208 264 73.1875L243.312 100.125L216.5 86.8125C217.542 84.5625 218.521 82.1667 219.438 79.625C220.354 77.0417 220.812 74.25 220.812 71.25L220.312 27.875C220.312 24.7917 218.229 22.2083 214.062 20.125ZM236.5 47.875L236.312 74.9375C236.688 77.0208 238.104 78.6458 240.562 79.8125C243.062 80.9375 244.729 81.5 245.562 81.5C246.438 81.5 247.042 81.4583 247.375 81.375C250.958 80.4583 252.75 78.125 252.75 74.375C252.75 73.4583 252.646 72.4583 252.438 71.375C251.021 64.375 248.958 59.0833 246.25 55.5C243.583 51.9167 240.333 49.375 236.5 47.875ZM299.5 99.0625L269.562 87.125C270.688 80.875 271.25 74.375 271.25 67.625C271.25 60.8333 270.604 53.75 269.312 46.375L290.875 33.6875V33.5L291 33.5625H291.062L315.375 51L290.062 77.625C291.771 79.6667 293.667 80.7917 295.75 81C297.833 81.2083 299.542 81.3125 300.875 81.3125C302.25 81.3125 303.854 81.25 305.688 81.125C307.562 80.9583 309.854 80.8333 312.562 80.75C310.354 83.8333 308.167 86.8958 306 89.9375C303.833 92.9792 301.667 96.0208 299.5 99.0625ZM289.125 50.375C286.708 50.375 285.5 53.6667 285.5 60.25C285.5 64 286.125 67.75 287.375 71.5C287.375 71.875 287.438 72.1875 287.562 72.4375L297.625 61.8125C298.333 61.0625 298.688 60.3125 298.688 59.5625C298.688 58.8125 298.312 57.8542 297.562 56.6875C296.854 55.5208 296.125 54.5625 295.375 53.8125C292.75 51.5208 290.667 50.375 289.125 50.375ZM341.312 42.625L349.438 34.375C357.812 40.1667 363.479 46.0417 366.438 52L356.438 65.375C355.312 62.0833 353.771 59.1875 351.812 56.6875C349.896 54.1875 346.688 51.625 342.188 49L340.125 51.8125L338.938 73.125C338.812 75.2917 340.188 77.5417 343.062 79.875C345.938 82.2083 348.167 83.7083 349.75 84.375L339.375 99.0625L320 84C322.333 81.2083 323.542 78.3333 323.625 75.375L323.5 51.375C323.375 49.375 321.833 47.375 318.875 45.375L328.312 33.5L341.312 42.625Z" fill="black"/>
<path d="M317.125 114.812C321 116.729 324.938 117.688 328.938 117.688C332.979 117.688 337.833 116.167 343.5 113.125L345.938 116.062C339.771 129.438 332.271 136.125 323.438 136.125C320.979 136.125 317.729 135.417 313.688 134C302.479 130.125 294.354 128.188 289.312 128.188C286.938 128.188 284.562 128.417 282.188 128.875C275.688 130.25 272.438 134.083 272.438 140.375C272.438 142.625 273.021 144.729 274.188 146.688C276.271 150.271 279.562 152.062 284.062 152.062C288.562 152.062 292.604 148.062 296.188 140.062C300.062 139.438 303.729 139.125 307.188 139.125C314.021 139.125 320.021 140.333 325.188 142.75C332.979 146.375 338.125 151.458 340.625 158C341.667 160.708 342.188 163.875 342.188 167.5C342.188 171.083 341.146 175.25 339.062 180C335.521 188.167 328.25 195.875 317.25 203.125C315.208 204.458 312.896 205.125 310.312 205.125C307.646 205.125 304.75 204.771 301.625 204.062C293.292 202.312 285.583 199.125 278.5 194.5C271.417 189.875 265.542 183.5 260.875 175.375C258.667 171.667 257.562 167.562 257.562 163.062C257.562 162.521 257.583 161.979 257.625 161.438C259.083 141.188 267.083 124.938 281.625 112.688C284.375 110.354 288.167 109.208 293 109.25C301.083 109.375 309.125 111.229 317.125 114.812ZM275.125 158.938C276.708 166.229 282.708 172.729 293.125 178.438C301 182.729 308.333 184.875 315.125 184.875C317.375 184.875 319.562 184.646 321.688 184.188C325.938 183.312 329.167 181.646 331.375 179.188C333.792 176.521 335 173.729 335 170.812C335 167.854 333.792 164.979 331.375 162.188C329 159.396 325.229 157.562 320.062 156.688C319.562 156.604 318.625 156.562 317.25 156.562C315.875 156.562 313.604 157.167 310.438 158.375C306.479 159.875 303.333 163.167 301 168.25C300.625 168.25 300.25 168.25 299.875 168.25C292.417 168.25 284.167 165.146 275.125 158.938ZM380.812 190.812C373.646 198.729 369.021 203.812 366.938 206.062C363.854 203.729 360.771 201.396 357.688 199.062C354.646 196.688 351.604 194.333 348.562 192C351.396 189.542 353.25 187.271 354.125 185.188C355 183.104 355.458 181.125 355.5 179.25L355.812 141.438C355.812 138.729 355.688 135.5 355.438 131.75C355.229 128 354.312 124.833 352.688 122.25L373.312 111.062C372.188 116.062 371.521 121.25 371.312 126.625C371.146 132 371.062 137.458 371.062 143V148.812L383.25 139.5C394.875 150.542 400.688 163.083 400.688 177.125C400.688 192.708 394.625 209.812 382.5 228.438L373.188 225.5C382.562 215.208 387.25 203.438 387.25 190.188C387.25 176.188 381.833 164.479 371 155.062L370.812 179.688C370.812 182.812 371.104 184.583 371.688 185C372.271 185.417 375.312 187.354 380.812 190.812ZM408 156.938C417.708 150.438 425.771 144.542 432.188 139.25C435.396 140.625 438.625 143.083 441.875 146.625C448.917 154.167 453.083 162.042 454.375 170.25C454.542 171.208 454.625 172.125 454.625 173C454.625 175.75 453.854 177.979 452.312 179.688L431.562 206.125L404.812 192.938C407.646 187.062 409.062 181.979 409.062 177.688L408.938 163.125C408.812 160.125 408.5 158.062 408 156.938ZM424.812 154.75L424.625 181.312C425 183.354 426.438 184.958 428.938 186.125C431.438 187.25 433.083 187.812 433.875 187.812C434.708 187.812 435.271 187.771 435.562 187.688C439.229 186.854 441.062 184.542 441.062 180.75C441.062 179.875 440.958 178.896 440.75 177.812C439.333 170.938 437.271 165.75 434.562 162.25C431.896 158.708 428.646 156.208 424.812 154.75ZM483.188 222.688C476.062 223.812 468.75 226.875 461.25 231.875L458.125 228.5C459.375 227.75 461.083 225.208 463.25 220.875C465.458 216.583 466.562 212.708 466.562 209.25L466.75 196.438L457.875 192.938C459.292 190.146 460.833 187.688 462.5 185.562C464.208 183.438 465.667 181.062 466.875 178.438L466.938 165.625C466.938 162.292 465.562 159.646 462.812 157.688C460.104 155.729 458.208 154.375 457.125 153.625L471.125 139.25L483.125 150.188L491.938 139.25C495.146 140.625 498.375 143.083 501.625 146.625C508.667 154.167 512.833 162.042 514.125 170.25C514.292 171.208 514.375 172.125 514.375 173C514.375 175.75 513.604 177.979 512.062 179.688L491.312 206.125L482.5 202.625L482.438 205.062C482.438 205.396 482.438 205.854 482.438 206.438C482.438 206.979 482.688 212.396 483.188 222.688ZM482.875 183.812C488.625 186.479 492.5 187.812 494.5 187.812C494.833 187.812 495.125 187.771 495.375 187.688C499 186.854 500.812 184.562 500.812 180.812C500.812 179.896 500.708 178.896 500.5 177.812C499.458 172.521 497.583 168.146 494.875 164.688C492.167 161.229 489.271 158.521 486.188 156.562C485.521 157.688 484.875 158.833 484.25 160C483.625 161.167 483.312 162.625 483.312 164.375L482.875 183.812Z" fill="black"/>
</g>
</svg>
